<?xml version="1.0" encoding="UTF-8"?>
<svg version="1.1" xmlns="http://www.w3.org/2000/svg" width="124" height="124">
<path d="M0 0 C1.27605103 0.0028299 2.55210205 0.00565979 3.86682129 0.00857544 C7.23372059 0.01783253 10.60034082 0.03575288 13.96716309 0.0579834 C17.41298024 0.07856578 20.85882639 0.08760346 24.3046875 0.09765625 C31.04695112 0.11964617 37.78908447 0.153071 44.53125 0.1953125 C44.52279053 1.29689697 44.51433105 2.39848145 44.50561523 3.53344727 C44.56189099 11.57230541 47.06747003 17.77918308 52.6484375 23.5703125 C58.59189929 28.69993927 66.00219043 29.1953125 73.53125 29.1953125 C73.60114357 36.45441711 73.65425907 43.71344768 73.68668652 50.97282219 C73.70225989 54.34463366 73.72334282 57.71621281 73.75756836 61.08789062 C73.79417452 64.97532152 73.81102786 68.8624275 73.82421875 72.75 C73.83970261 73.94519257 73.85518646 75.14038513 73.87113953 76.37179565 C73.87333225 87.4076101 71.79903862 96.64596486 64.53125 105.1953125 C59.05524113 110.06675139 54.58569214 111.31686431 47.35693359 111.40405273 C46.62968079 111.41383652 45.90242798 111.4236203 45.15313721 111.43370056 C42.74533912 111.46362094 40.33759665 111.48503493 37.9296875 111.50390625 C37.10519733 111.51047808 36.28070717 111.5170499 35.43123245 111.52382088 C31.06371018 111.5564057 26.69621215 111.58085423 22.32861328 111.6003418 C18.72408258 111.61812411 15.12033875 111.65289489 11.51611328 111.70288086 C7.15535335 111.7632817 2.79532043 111.79384488 -1.56583786 111.80351448 C-3.22197302 111.81203943 -4.87809032 111.8307842 -6.53398514 111.8602581 C-22.14714394 112.12311402 -22.14714394 112.12311402 -28.78207397 106.85218811 C-36.47839993 99.29184186 -39.50885546 91.40820689 -39.85693359 80.61914062 C-39.87654411 78.15502358 -39.8791462 75.69072856 -39.8671875 73.2265625 C-39.87005768 71.91046997 -39.87292786 70.59437744 -39.87588501 69.23840332 C-39.88027805 66.46823414 -39.87397612 63.6983575 -39.85986328 60.92822266 C-39.84277274 57.40482536 -39.85263036 53.88211399 -39.87058067 50.35874176 C-39.88412293 46.96046264 -39.87459862 43.562361 -39.8671875 40.1640625 C-39.87326019 38.91274536 -39.87933289 37.66142822 -39.8855896 36.37219238 C-39.79947229 25.55130953 -38.31514028 16.144047 -30.46875 8.1953125 C-21.02855697 0.32848497 -11.87749196 -0.09989193 0 0 Z M43.53125 38.1953125 C39.36064054 42.18021765 35.78487506 46.47974362 32.21875 51.0078125 C31.66896484 51.70068359 31.11917969 52.39355469 30.55273438 53.10742188 C29.20942637 54.80115805 27.86994313 56.49792647 26.53125 58.1953125 C20.93408905 56.4461997 17.04948144 52.6951225 12.703125 48.91992188 C12.11015625 48.42943359 11.5171875 47.93894531 10.90625 47.43359375 C10.11347656 46.753573 10.11347656 46.753573 9.3046875 46.05981445 C7.48468109 44.99631807 7.48468109 44.99631807 5.03125 45.31860352 C2.02691318 46.37217515 1.05394826 47.45546064 -0.84375 49.984375 C-1.43671875 50.76167969 -2.0296875 51.53898437 -2.640625 52.33984375 C-3.24390625 53.15839844 -3.8471875 53.97695312 -4.46875 54.8203125 C-5.07203125 55.61566406 -5.6753125 56.41101563 -6.296875 57.23046875 C-8.0401331 59.53839088 -9.75539092 61.86515432 -11.46875 64.1953125 C-12.23964966 65.20718628 -12.23964966 65.20718628 -13.02612305 66.23950195 C-15.8456781 69.7761934 -15.8456781 69.7761934 -16.28125 74.1328125 C-16.013125 74.8134375 -15.745 75.4940625 -15.46875 76.1953125 C-13.81875 76.5253125 -12.16875 76.8553125 -10.46875 77.1953125 C-4.37594074 70.51743215 1.077633 63.39364802 6.53125 56.1953125 C12.10722254 59.79398982 17.3443651 63.55764431 22.390625 67.875 C24.47592731 69.29669986 24.47592731 69.29669986 26.89453125 69.859375 C31.30740961 68.74798341 33.30354247 65.21151612 35.96875 61.6953125 C36.51595703 60.99921875 37.06316406 60.303125 37.62695312 59.5859375 C38.7285339 58.17799994 39.8189072 56.76122228 40.89794922 55.3359375 C42.00086097 53.89044718 43.12838659 52.46345709 44.27783203 51.0546875 C44.82681152 50.36890625 45.37579102 49.683125 45.94140625 48.9765625 C46.43906494 48.36876953 46.93672363 47.76097656 47.44946289 47.13476562 C48.80872796 44.69784356 48.72766993 42.94222886 48.53125 40.1953125 C46.05625 39.2053125 46.05625 39.2053125 43.53125 38.1953125 Z " fill="#2D83CC" transform="translate(39.46875,12.8046875)"/>
<path d="M0 0 C4.29154647 1.62069963 7.66878035 3.98512172 10 8 C11.35488172 12.06464515 11.53762555 15.74985211 11 20 C8.50586109 24.64425866 6.05874933 28.31375022 1 30 C-4.29487804 30.50704484 -8.65500981 30.64847741 -13.5 28.3125 C-17.89443074 24.24765156 -19.18657624 21.53610427 -19.4375 15.5625 C-19.28389948 10.59385719 -18.46570672 7.73931515 -15 4 C-10.26040436 -0.18847986 -6.1047356 -1.06169315 0 0 Z " fill="#223B9B" transform="translate(113,2)"/>
</svg>
