<?xml version="1.0" encoding="UTF-8"?>
<svg version="1.1" xmlns="http://www.w3.org/2000/svg" width="750" height="275">
<path d="M0 0 C16.7990625 -0.061875 16.7990625 -0.061875 33.9375 -0.125 C37.45784912 -0.14320801 40.97819824 -0.16141602 44.60522461 -0.18017578 C48.94445801 -0.18920898 48.94445801 -0.18920898 50.98365784 -0.19088745 C52.39077524 -0.19393418 53.79788783 -0.20091693 55.20497131 -0.21115112 C66.55712061 -0.28950433 76.71537566 -0.2845352 86 7 C92.4676315 13.63783233 92.89555532 22.13264699 93 31 C92.43661895 38.43871651 90.14903506 45.30965223 84.4453125 50.3828125 C81.80889594 52.25847204 80.27237202 53 77 53 C81.38576621 60.16388821 86.08456141 66.88024486 91.27734375 73.46875 C93 76 93 76 93 79 C85.75769643 80.20428772 78.1060524 81.26666137 71 79 C64.89222542 74.18919785 61.35024234 66.8745629 58 60 C57.34 58.68 56.68 57.36 56 56 C43.79 56 31.58 56 19 56 C19 63.59 19 71.18 19 79 C12.73 79 6.46 79 0 79 C0 52.93 0 26.86 0 0 Z M21 16 C21 23.92 21 31.84 21 40 C27.13852822 40.06902968 33.27569894 40.12871659 39.41430664 40.16479492 C41.5006162 40.17984159 43.58689433 40.20028382 45.6730957 40.22631836 C48.67927831 40.26288295 51.68504112 40.2797679 54.69140625 40.29296875 C56.08088219 40.31619453 56.08088219 40.31619453 57.49842834 40.33988953 C63.10948684 40.3413337 67.05715031 39.72911375 72 37 C74.67075199 33.49463802 75.22882826 30.73518071 75 26.4375 C74.320104 21.95774083 72.6462168 19.77806994 69 17 C66.16987873 16.05662624 64.45700082 15.87827171 61.52856445 15.88647461 C60.62785721 15.88655014 59.72714996 15.88662567 58.79914856 15.88670349 C57.34589424 15.89444542 57.34589424 15.89444542 55.86328125 15.90234375 C54.86870407 15.9037587 53.87412689 15.90517365 52.84941101 15.90663147 C49.67041018 15.91223239 46.49147957 15.92478504 43.3125 15.9375 C41.15820414 15.94251488 39.00390718 15.94707781 36.84960938 15.95117188 C31.56635737 15.96135155 26.28325738 15.98092687 21 16 Z " fill="#1F288E" transform="translate(472,175)"/>
<path d="M0 0 C11.158125 -0.061875 22.31625 -0.12375 33.8125 -0.1875 C37.31464111 -0.21481201 40.81678223 -0.24212402 44.42504883 -0.27026367 C48.75524902 -0.28381348 48.75524902 -0.28381348 50.79277039 -0.28633118 C52.19314956 -0.29088926 53.59351816 -0.30133745 54.99382019 -0.31672668 C65.45434945 -0.42577815 75.76757648 -0.5008283 84.4375 6.0625 C90.72833272 12.2758276 92.22048362 18.89052533 92.4375 27.5625 C92.15775331 36.52341822 90.59558938 42.71446973 84.79296875 49.58984375 C82.39271177 51.47762756 79.91073829 52.15966133 77 53 C81.64688648 60.08155839 86.38946755 66.98889884 91.53125 73.72265625 C93 76 93 76 93 79 C85.75769643 80.20428772 78.1060524 81.26666137 71 79 C64.89222542 74.18919785 61.35024234 66.8745629 58 60 C57.34 58.68 56.68 57.36 56 56 C43.79 56 31.58 56 19 56 C19 63.59 19 71.18 19 79 C12.73 79 6.46 79 0 79 C0 52.93 0 26.86 0 0 Z M19 16 C19 23.92 19 31.84 19 40 C25.2992413 40.0689698 31.59716597 40.12867498 37.89648438 40.16479492 C40.03813117 40.17985641 42.17974724 40.20030972 44.32128906 40.22631836 C47.40437411 40.26281728 50.48705038 40.27975302 53.5703125 40.29296875 C55.00034103 40.31619453 55.00034103 40.31619453 56.45925903 40.33988953 C61.7461525 40.3412199 65.42811865 39.96832455 70 37 C72.78169 34.15937589 73.45084604 32.06960564 73.5 28.125 C73.39804712 24.49225799 72.97398424 22.29042444 70.6875 19.4375 C67.22943322 16.30111385 64.93386157 15.8741538 60.43676758 15.88647461 C59.51603958 15.88655014 58.59531158 15.88662567 57.64668274 15.88670349 C56.65597275 15.89186478 55.66526276 15.89702606 54.64453125 15.90234375 C53.62775803 15.9037587 52.6109848 15.90517365 51.56340027 15.90663147 C48.31307036 15.91223293 45.06280912 15.92478568 41.8125 15.9375 C39.61002704 15.94251481 37.40755299 15.94707775 35.20507812 15.95117188 C29.80333762 15.96135231 24.40174575 15.98092754 19 16 Z " fill="#1F288E" transform="translate(243,175)"/>
<path d="M0 0 C27.06 0 54.12 0 82 0 C82 5.28 82 10.56 82 16 C61.21 16 40.42 16 19 16 C19 21.28 19 26.56 19 32 C38.47 32 57.94 32 78 32 C78 36.95 78 41.9 78 47 C58.53 47 39.06 47 19 47 C19 52.28 19 57.56 19 63 C40.45 63 61.9 63 84 63 C84 68.28 84 73.56 84 79 C56.28 79 28.56 79 0 79 C0 52.93 0 26.86 0 0 Z " fill="#1F288E" transform="translate(139,175)"/>
<path d="M0 0 C11.158125 -0.061875 22.31625 -0.12375 33.8125 -0.1875 C37.31464111 -0.21481201 40.81678223 -0.24212402 44.42504883 -0.27026367 C48.75524902 -0.28381348 48.75524902 -0.28381348 50.79277039 -0.28633118 C52.19314956 -0.29088926 53.59351816 -0.30133745 54.99382019 -0.31672668 C66.68532305 -0.4386111 77.59480908 -0.39499629 86.41015625 8.16796875 C92.27379515 14.92484011 92.36301004 22.80634221 92.2734375 31.3515625 C91.74939632 38.34376906 89.98606501 44.61140841 84.75 49.5 C78.37788804 54.24489882 70.79809496 56.13384521 62.93432617 56.11352539 C61.95368698 56.11344986 60.97304779 56.11337433 59.96269226 56.11329651 C58.9166835 56.10813522 57.87067474 56.10297394 56.79296875 56.09765625 C55.71243729 56.0962413 54.63190582 56.09482635 53.51863098 56.09336853 C50.07489224 56.0877808 46.63121902 56.0752305 43.1875 56.0625 C40.84961032 56.05748342 38.51171961 56.05292079 36.17382812 56.04882812 C30.44917332 56.03866722 24.72465983 56.01908927 19 56 C19 63.59 19 71.18 19 79 C12.73 79 6.46 79 0 79 C0 52.93 0 26.86 0 0 Z M19 16 C19 23.92 19 31.84 19 40 C25.13852822 40.06902968 31.27569894 40.12871659 37.41430664 40.16479492 C39.5006162 40.17984159 41.58689433 40.20028382 43.6730957 40.22631836 C46.67927831 40.26288295 49.68504112 40.2797679 52.69140625 40.29296875 C54.08088219 40.31619453 54.08088219 40.31619453 55.49842834 40.33988953 C61.10057174 40.3413314 65.08355555 39.77252191 70 37 C72.7721835 32.58183255 73.53152593 28.91650946 72.6484375 23.86328125 C71.55213044 20.71304951 69.5691448 19.01861377 67 17 C64.16987873 16.05662624 62.45700082 15.87827171 59.52856445 15.88647461 C58.62785721 15.88655014 57.72714996 15.88662567 56.79914856 15.88670349 C55.34589424 15.89444542 55.34589424 15.89444542 53.86328125 15.90234375 C52.86870407 15.9037587 51.87412689 15.90517365 50.84941101 15.90663147 C47.67041018 15.91223239 44.49147957 15.92478504 41.3125 15.9375 C39.15820414 15.94251488 37.00390718 15.94707781 34.84960938 15.95117188 C29.56635737 15.96135155 24.28325738 15.98092687 19 16 Z " fill="#1F288E" transform="translate(28,175)"/>
<path d="M0 0 C6.27 0 12.54 0 19 0 C19.01458252 1.44769775 19.02916504 2.89539551 19.04418945 4.38696289 C19.10230627 9.77506805 19.17953901 15.16276116 19.26245117 20.55053711 C19.29563748 22.87924495 19.32368888 25.20803202 19.34643555 27.53686523 C19.38009669 30.89080457 19.43241999 34.24402206 19.48828125 37.59765625 C19.49467117 38.63334244 19.5010611 39.66902863 19.50764465 40.73609924 C19.64816113 47.69647244 20.17431988 53.17431988 25.3125 58.3125 C36.37855944 65.26095593 51.81679603 63.78075982 64 61 C68.73141316 59.22572006 71.17410896 57.18650524 74 53 C74.97241945 50.08274166 75.15167819 48.11196561 75.20532227 45.06958008 C75.22526749 44.06876907 75.24521271 43.06795807 75.26576233 42.03681946 C75.28247482 40.95861435 75.29918732 39.88040924 75.31640625 38.76953125 C75.3475779 37.11119514 75.3475779 37.11119514 75.37937927 35.4193573 C75.44482332 31.8838021 75.50373603 28.34817194 75.5625 24.8125 C75.6056901 22.41730992 75.64930454 20.02212745 75.69335938 17.62695312 C75.80049952 11.75137912 75.90178168 5.87572964 76 0 C82.27 0 88.54 0 95 0 C95.09939933 7.48897498 95.17172015 14.97755991 95.21972656 22.46704102 C95.23975435 25.01105444 95.26698464 27.55502235 95.30175781 30.09887695 C95.3506643 33.77045983 95.3730582 37.44143033 95.390625 41.11328125 C95.41127014 42.23769119 95.43191528 43.36210114 95.45318604 44.52058411 C95.45581463 53.91953172 93.65849354 63.39347648 86.953125 70.4375 C75.88769571 79.28984343 63.30426379 80.36003689 49.66015625 80.31567383 C47.63486731 80.31251539 45.61104697 80.33605107 43.5859375 80.36132812 C30.39423394 80.36779465 16.95629817 78.4031705 7 69 C0.02761427 60.59212309 -0.44295716 50.01889943 -0.29296875 39.55078125 C-0.28872391 38.41215134 -0.28447906 37.27352142 -0.28010559 36.10038757 C-0.26346525 32.50417281 -0.22584042 28.90854213 -0.1875 25.3125 C-0.17243425 22.85743003 -0.15874917 20.40235118 -0.14648438 17.94726562 C-0.11360973 11.9646226 -0.06192971 5.98240993 0 0 Z " fill="#1F288E" transform="translate(354,175)"/>
<path d="M0 0 C34.2245105 -0.21750031 68.38922238 0.3343153 102.59863281 1.33239746 C107.54709544 1.47483616 112.49575463 1.60965019 117.4444313 1.74441433 C122.27455042 1.87649752 127.10456976 2.01196326 131.93456268 2.14857674 C134.20690599 2.21269367 136.47926995 2.27608334 138.75165558 2.33868217 C161.10473918 2.95985974 161.10473918 2.95985974 172 4 C170.125 7.875 170.125 7.875 169 9 C167.07791421 9.14557847 165.15057119 9.22195655 163.22363281 9.27210999 C161.96787445 9.30714127 160.71211609 9.34217255 159.41830444 9.37826538 C158.01324689 9.41250741 156.60818699 9.44665331 155.203125 9.48071289 C153.73303138 9.51985701 152.26294893 9.5594228 150.7928772 9.59938049 C146.78376578 9.70708346 142.77451995 9.80867792 138.76522064 9.90911031 C134.56100685 10.01532792 130.35692942 10.12669935 126.15283203 10.2374115 C119.07430114 10.42305073 111.99568173 10.60494168 104.91699219 10.78442383 C96.77097502 10.99099307 88.62509541 11.20239703 80.47927856 11.41671187 C71.77980712 11.645556 63.08024938 11.87097589 54.38066101 12.09532619 C51.89263753 12.15969991 49.40463037 12.22467501 46.91662598 12.28978157 C42.97032156 12.39286406 39.0239635 12.49360855 35.07755661 12.59268761 C33.64305102 12.62902713 32.20856313 12.66607479 30.77409744 12.7039566 C20.51335454 12.97420365 10.26325221 13.04010283 0 13 C0 8.71 0 4.42 0 0 Z " fill="#C867FF" transform="translate(401,116)"/>
<path d="M0 0 C6.27 0 12.54 0 19 0 C19 26.07 19 52.14 19 79 C12.73 79 6.46 79 0 79 C0 52.93 0 26.86 0 0 Z " fill="#1F288E" transform="translate(584,175)"/>
<path d="M0 0 C12.81150909 -1.71861707 21.06010427 3.52007858 32.07080078 9.45214844 C36.74986942 11.92466846 41.52736048 14.1791315 46.3125 16.4375 C48.23850579 17.3536948 50.16428468 18.27036671 52.08984375 19.1875 C53.05776855 19.64769531 54.02569336 20.10789062 55.02294922 20.58203125 C60.14593448 23.02210821 65.26021986 25.48028235 70.375 27.9375 C72.44920543 28.93362148 74.52342426 29.92971506 76.59765625 30.92578125 C78.15830811 31.67529053 78.15830811 31.67529053 79.75048828 32.43994141 C83.16526338 34.07934132 86.58061535 35.7175346 89.99609375 37.35546875 C91.1370752 37.90275635 92.27805664 38.45004395 93.45361328 39.01391602 C95.64587798 40.06543184 97.83825564 41.11671218 100.03076172 42.16772461 C101.51020264 42.87747437 101.51020264 42.87747437 103.01953125 43.6015625 C103.88682861 44.01744629 104.75412598 44.43333008 105.64770508 44.86181641 C107.77416564 45.89072758 109.88999322 46.93782802 112 48 C112 48.66 112 49.32 112 50 C109.63024218 51.43885637 107.83161015 52.14514376 105.05581665 51.66067505 C102.64520007 50.92592319 100.29002944 50.09539191 97.92578125 49.22265625 C96.57528687 48.74661453 96.57528687 48.74661453 95.19750977 48.26095581 C92.22996937 47.21055307 89.27148868 46.13673234 86.3125 45.0625 C84.24881612 44.3267319 82.18459971 43.59245586 80.11987305 42.85961914 C75.85644747 41.34317754 71.59672302 39.81694733 67.33984375 38.28222656 C61.3268878 36.1147817 55.3054108 33.97200711 49.28125 31.8359375 C32.81673293 25.99030195 16.3847477 20.0659113 0 14 C0 9.38 0 4.76 0 0 Z " fill="#1F288E" transform="translate(463,60)"/>
<path d="M0 0 C4.80852206 -1.53368885 9.34685716 -2.23686954 14 0 C19.54347348 5.42508644 23.09657523 12.81859086 26.92822266 19.48339844 C30.11463531 24.9638679 33.65978819 30.21334776 37.16748047 35.49121094 C39.18168416 38.52921327 41.17324602 41.58200039 43.16796875 44.6328125 C46.02044452 48.98881713 48.88153474 53.33899925 51.7520752 57.68312073 C53.352257 60.10573231 54.94907716 62.53054922 56.54547119 64.95565796 C57.30255702 66.10374902 58.06128817 67.25075691 58.82171631 68.39663696 C59.86830687 69.9739582 60.90892532 71.55523727 61.94921875 73.13671875 C62.54049561 74.03092529 63.13177246 74.92513184 63.7409668 75.84643555 C65 78 65 78 65 80 C62.36328125 80.36328125 62.36328125 80.36328125 59 80 C56.76431086 78.10222879 55.05340249 76.39893999 53.1875 74.1875 C52.66542969 73.59582031 52.14335938 73.00414063 51.60546875 72.39453125 C47.7298386 67.96795368 44.02523179 63.40101354 40.34375 58.8125 C37.18196559 55.01835871 33.81454636 51.43716235 30.43920898 47.83374023 C27.34219916 44.508452 24.40378316 41.11280061 21.5625 37.5625 C17.44756339 32.43013401 13.033354 27.63378298 8.51586914 22.85766602 C6.99839977 21.24931078 5.49900803 19.62553412 4 18 C3.21753906 17.17886719 2.43507813 16.35773437 1.62890625 15.51171875 C-0.49965112 12.22955475 -0.40650894 10.06109621 -0.25 6.1875 C-0.21390625 5.02605469 -0.1778125 3.86460938 -0.140625 2.66796875 C-0.07101562 1.34732422 -0.07101562 1.34732422 0 0 Z " fill="#C867FF" transform="translate(517,21)"/>
<path d="M0 0 C0 4.29 0 8.58 0 13 C-16.10624635 19.08845948 -32.38635012 24.66697573 -48.67431641 30.24487305 C-52.51794418 31.56115434 -56.36032804 32.88102574 -60.20236588 34.20193958 C-63.19428129 35.23018333 -66.18679572 36.25667433 -69.17949677 37.28262901 C-70.59734282 37.76889924 -72.01501536 38.25567573 -73.43250275 38.74299049 C-75.40655106 39.4213256 -77.38138783 40.09731482 -79.35644531 40.77270508 C-80.47384094 41.15574295 -81.59123657 41.53878082 -82.74249268 41.9334259 C-86.14266651 43.04671191 -89.55429177 44.03848985 -93 45 C-92.51899675 41.28450693 -92.21765007 38.95903486 -89.20275879 36.58447266 C-86.70555213 35.20557269 -84.17509807 33.9931227 -81.578125 32.8125 C-80.61827194 32.35186661 -79.65841888 31.89123322 -78.66947937 31.41664124 C-75.54020285 29.92093992 -72.39606629 28.4600109 -69.25 27 C-66.01696236 25.47204603 -62.78721201 23.93728529 -59.55747986 22.40235901 C-57.40762534 21.38172655 -55.25630519 20.36417558 -53.10353088 19.34971619 C-46.89492526 16.41626839 -40.76376689 13.38044358 -34.69921875 10.16015625 C-34.01826141 9.80222992 -33.33730408 9.44430359 -32.63571167 9.07553101 C-29.57758073 7.46758658 -26.53719856 5.84070674 -23.51464844 4.16601562 C-15.33435986 -0.11290455 -9.21825516 -0.56414558 0 0 Z " fill="#1F288E" transform="translate(705,68)"/>
<path d="M0 0 C2.76656625 0.0511248 5.49905335 0.16914039 8.25927734 0.33789062 C9.11067984 0.38664589 9.96208233 0.43540115 10.8392849 0.48563385 C20.51987914 1.05832037 30.18568619 1.8158702 39.8515625 2.59375 C41.77256537 2.74696054 43.69357586 2.9000755 45.61459351 3.05310059 C49.5928187 3.37067304 53.5708741 3.69028002 57.54882812 4.01123047 C62.65620571 4.42300448 67.76408919 4.82811315 72.87212563 5.23162079 C76.81671327 5.54418004 80.76096058 5.8608751 84.70512009 6.17878723 C86.59095073 6.33015102 88.47689963 6.4800487 90.36296463 6.62846375 C92.97623258 6.83457943 95.58897488 7.04640874 98.20166016 7.25976562 C98.98172928 7.32005447 99.7617984 7.38034332 100.56550598 7.44245911 C105.88581503 7.88581503 105.88581503 7.88581503 107 9 C107.1438629 13.33315059 107.04208618 17.66512361 107 22 C94.88489988 22.77144794 83.37840107 20.43028005 71.51171875 18.28125 C69.35570665 17.89913532 67.19951947 17.51800725 65.04316711 17.13781738 C59.40761248 16.14150356 53.77451464 15.13192885 48.1418457 14.1194458 C42.37790588 13.08583521 36.61171222 12.06496069 30.84570312 11.04296875 C19.56157749 9.04100901 8.28000958 7.02501363 -3 5 C-1.125 1.125 -1.125 1.125 0 0 Z " fill="#1F288E" transform="translate(616,119)"/>
<path d="M0 0 C4.74871399 -0.32573501 7.22451354 0.3159537 11.17578125 2.9375 C12.15675781 3.57768066 13.13773438 4.21786133 14.1484375 4.87744141 C15.19257812 5.57788574 16.23671875 6.27833008 17.3125 7 C18.97645156 8.09166053 20.64041814 9.18329899 22.30526733 10.27359009 C24.03898454 11.41120215 25.76887196 12.55447801 27.49853516 13.69824219 C33.12266646 17.40742116 38.81637091 21.00795124 44.5 24.625 C47.44595852 26.5037038 50.38963665 28.38445242 53.31860352 30.28955078 C55.08568841 31.41676527 56.87821891 32.50518073 58.69506836 33.55029297 C64.78907489 37.17692337 64.78907489 37.17692337 65.87890625 41.4296875 C65.72228516 43.13511719 65.72228516 43.13511719 65.5625 44.875 C65.44068359 46.60363281 65.44068359 46.60363281 65.31640625 48.3671875 C65.21199219 49.23601562 65.10757813 50.10484375 65 51 C52.79351523 52.06658605 52.79351523 52.06658605 48.79296875 49.6875 C47.125 47.9375 47.125 47.9375 45.68847656 46.06347656 C44.02541658 44.03106144 42.31882691 42.42733761 40.31640625 40.734375 C36.02846189 37.04786042 31.91401665 33.2041228 27.8125 29.3125 C26.32203975 27.90449771 24.83114983 26.49695014 23.33984375 25.08984375 C22.60878418 24.40003418 21.87772461 23.71022461 21.12451172 22.99951172 C13.88297434 16.18404503 6.62688913 9.38530253 -1 3 C-0.67 2.01 -0.34 1.02 0 0 Z " fill="#C867FF" transform="translate(609,131)"/>
<path d="M0 0 C3.609375 0.546875 3.609375 0.546875 6.25 1.25 C7.30544437 5.88613711 7.41224991 9.61974633 6.25 14.25 C2.65812051 19.42622864 -2.31029253 23.50630119 -6.99902344 27.66113281 C-8.98317575 29.46158781 -10.73222038 31.37231212 -12.4375 33.4375 C-15.85307704 37.49017949 -19.62399056 41.15704248 -23.39672852 44.87280273 C-26.19914226 47.64761526 -28.86121588 50.45504774 -31.375 53.5 C-32.550625 54.86125 -32.550625 54.86125 -33.75 56.25 C-34.41 56.25 -35.07 56.25 -35.75 56.25 C-36.63105028 52.32476273 -37.04793576 49.97258248 -35.4934082 46.20239258 C-34.85234131 45.19329834 -34.21127441 44.1842041 -33.55078125 43.14453125 C-33.03167175 42.3072776 -33.03167175 42.3072776 -32.5020752 41.45310974 C-31.37436288 39.64357258 -30.22040876 37.85283881 -29.0625 36.0625 C-27.87255816 34.19295544 -26.68687325 32.32077566 -25.50236511 30.44778442 C-24.7088892 29.19316468 -23.91315981 27.93996732 -23.1151886 26.6882019 C-20.69737621 22.86577959 -18.50177144 18.99394282 -16.4375 14.96484375 C-8.69590375 0.06963687 -8.69590375 0.06963687 0 0 Z " fill="#C867FF" transform="translate(641.75,47.75)"/>
<path d="M0 0 C4.29 0 8.58 0 13 0 C13.07972642 8.94638816 12.81132704 17.77950705 12.1953125 26.703125 C12.11127167 27.94753357 12.02723083 29.19194214 11.94064331 30.47406006 C11.76310366 33.07580653 11.58315629 35.67738975 11.40087891 38.27880859 C11.16894846 41.61737559 10.94649312 44.95628599 10.72886848 48.29579544 C10.51788085 51.49466277 10.29326657 54.69257284 10.0703125 57.890625 C9.99313995 59.09148743 9.91596741 60.29234985 9.8364563 61.52960205 C9.75652435 62.62874939 9.67659241 63.72789673 9.59423828 64.86035156 C9.52761993 65.83151917 9.46100159 66.80268677 9.3923645 67.80328369 C9.26288422 68.52820007 9.13340393 69.25311646 9 70 C8.01 70.495 8.01 70.495 7 71 C5.06542969 70.05126953 5.06542969 70.05126953 3 68 C2.43098072 64.96484963 2.11595491 62.24101729 1.953125 59.1796875 C1.8920607 58.29590927 1.8309964 57.41213104 1.76808167 56.50157166 C1.57572641 53.62692841 1.41190839 50.75150587 1.25 47.875 C1.12661539 45.91361016 1.0025097 43.95226555 0.87768555 41.9909668 C0.0202305 27.98426737 -0.37402374 14.03281677 0 0 Z " fill="#1F288E" transform="translate(587,27)"/>
<path d="M0 0 C0.58201043 3.69889273 0.83110461 5.83247501 -1.38720703 8.94873047 C-3.37729405 11.03147652 -5.43582197 12.99444703 -7.5625 14.9375 C-8.98292339 16.27735043 -10.40090645 17.61979279 -11.81640625 18.96484375 C-12.86078857 19.95073486 -12.86078857 19.95073486 -13.92626953 20.95654297 C-17.15075507 24.13395572 -20.0668109 27.55617691 -23 31 C-24 32 -24 32 -27.16015625 32.09765625 C-28.44792969 32.08605469 -29.73570312 32.07445312 -31.0625 32.0625 C-32.35285156 32.05347656 -33.64320313 32.04445312 -34.97265625 32.03515625 C-35.97167969 32.02355469 -36.97070312 32.01195312 -38 32 C-38 27.71 -38 23.42 -38 19 C-3.49425287 0 -3.49425287 0 0 0 Z " fill="#1F288E" transform="translate(576,129)"/>
</svg>
