<?xml version="1.0" encoding="UTF-8"?>
<svg version="1.1" xmlns="http://www.w3.org/2000/svg" width="549" height="285">
<path d="M0 0 C13.303125 -0.0928125 13.303125 -0.0928125 26.875 -0.1875 C31.04552002 -0.22846802 31.04552002 -0.22846802 35.30029297 -0.27026367 C37.53092008 -0.27903447 39.76155202 -0.286677 41.9921875 -0.29296875 C43.12857666 -0.30831665 44.26496582 -0.32366455 45.43579102 -0.33947754 C53.56577094 -0.34212 61.36063759 0.13497002 67.9375 5.3125 C72.03680104 10.65401347 73.53822541 15.17081159 73.4375 21.875 C73.42920166 22.58245361 73.42090332 23.28990723 73.41235352 24.01879883 C73.2323436 29.57604433 72.53552343 33.68287447 69 38 C67.23071289 39.41723633 67.23071289 39.41723633 65.34765625 40.70703125 C64.71996338 41.14120361 64.09227051 41.57537598 63.44555664 42.02270508 C62.96852295 42.3452124 62.49148926 42.66771973 62 43 C62.36351562 43.50450684 62.72703125 44.00901367 63.1015625 44.52880859 C64.73925754 46.80740929 66.3696962 49.09110593 68 51.375 C68.85851562 52.56609375 68.85851562 52.56609375 69.734375 53.78125 C70.27578125 54.54179687 70.8171875 55.30234375 71.375 56.0859375 C71.87773437 56.7876709 72.38046875 57.4894043 72.8984375 58.21240234 C74 60 74 60 74 62 C59.82407272 63.92411078 59.82407272 63.92411078 55.24560547 60.8046875 C50.43120125 56.01331871 47.50493028 50.2623257 45 44 C35.43 44 25.86 44 16 44 C16 49.94 16 55.88 16 62 C10.72 62 5.44 62 0 62 C0 41.54 0 21.08 0 0 Z M16 13 C16 18.94 16 24.88 16 31 C21.17870923 31.0919751 26.35457113 31.17156441 31.53344727 31.21972656 C33.29396175 31.23980786 35.05440982 31.26707879 36.81469727 31.30175781 C39.34928802 31.35043112 41.88299495 31.37300305 44.41796875 31.390625 C45.59325386 31.42159271 45.59325386 31.42159271 46.7922821 31.45318604 C50.56789999 31.45472672 52.76502744 31.14649205 55.99926758 29.13012695 C58.17643474 27.16467764 58.17643474 27.16467764 58.59375 24.52734375 C58.5628125 23.67269531 58.531875 22.81804687 58.5 21.9375 C58.4896875 21.08027344 58.479375 20.22304687 58.46875 19.33984375 C57.91517335 16.57657365 57.22480532 15.68434554 55 14 C51.24151826 12.74717275 47.74509081 12.87618165 43.83203125 12.90234375 C43.03721848 12.9037587 42.2424057 12.90517365 41.42350769 12.90663147 C38.88646675 12.91222622 36.34951425 12.92477772 33.8125 12.9375 C32.09179815 12.94251568 30.37109492 12.94707847 28.65039062 12.95117188 C24.43353231 12.96134278 20.21686509 12.98091916 16 13 Z " fill="#FFFFFF" transform="translate(169,113)"/>
<path d="M0 0 C13.303125 -0.0928125 13.303125 -0.0928125 26.875 -0.1875 C31.04552002 -0.22846802 31.04552002 -0.22846802 35.30029297 -0.27026367 C37.53092008 -0.27903447 39.76155202 -0.286677 41.9921875 -0.29296875 C43.12857666 -0.30831665 44.26496582 -0.32366455 45.43579102 -0.33947754 C53.56577094 -0.34212 61.36063759 0.13497002 67.9375 5.3125 C72.03680104 10.65401347 73.53822541 15.17081159 73.4375 21.875 C73.42920166 22.58245361 73.42090332 23.28990723 73.41235352 24.01879883 C73.23628953 29.45422611 72.63744253 33.8384303 69 38 C66.74988466 39.95138483 64.55280555 41.42904274 62 43 C64.87576349 47.3581158 67.74863991 51.6915898 70.875 55.875 C73 59 73 59 73 62 C67.39703962 63.01570253 61.45977137 64.07269098 56 62 C53.69880605 59.49122412 52.29614525 56.57821833 50.75 53.5625 C48.90231658 50.08504696 47.16925782 47.38781561 44 45 C34.69049269 42.4820777 24.52561642 43.39051135 15 44 C15 49.94 15 55.88 15 62 C10.05 62 5.1 62 0 62 C0 41.54 0 21.08 0 0 Z M16 13 C16 18.94 16 24.88 16 31 C21.32158846 31.11496471 26.63885113 31.21444002 31.96069336 31.2746582 C33.76976132 31.2997639 35.57872822 31.33385595 37.38745117 31.37719727 C39.99162751 31.43802579 42.59446031 31.46624809 45.19921875 31.48828125 C46.00461594 31.51408768 46.81001312 31.5398941 47.63981628 31.56648254 C51.89559455 31.56859616 53.52373031 31.36472282 57.01879883 28.68823242 C59.60957851 25.17288121 59.61168009 23.28176065 59 19 C57.82725006 16.12608179 57.82725006 16.12608179 56 14 C52.1784462 12.72614873 48.5931553 12.87646812 44.61328125 12.90234375 C43.79627243 12.9037587 42.97926361 12.90517365 42.13749695 12.90663147 C39.52912732 12.91222706 36.92084366 12.92477871 34.3125 12.9375 C32.54362103 12.94251557 30.77474072 12.94707838 29.00585938 12.95117188 C24.67051318 12.96134397 20.33535278 12.98092021 16 13 Z " fill="#FFFFFF" transform="translate(350,113)"/>
<path d="M0 0 C21.45 0 42.9 0 65 0 C65 4.29 65 8.58 65 13 C48.5 13 32 13 15 13 C15 16.96 15 20.92 15 25 C30.18 25 45.36 25 61 25 C61 28.96 61 32.92 61 37 C45.82 37 30.64 37 15 37 C15 40.96 15 44.92 15 49 C31.83 49 48.66 49 66 49 C66 53.29 66 57.58 66 62 C44.22 62 22.44 62 0 62 C0 41.54 0 21.08 0 0 Z " fill="#FFFFFF" transform="translate(88,113)"/>
<path d="M0 0 C8.848125 -0.0825 17.69625 -0.165 26.8125 -0.25 C30.96936401 -0.30462402 30.96936401 -0.30462402 35.21020508 -0.36035156 C37.43830595 -0.37204804 39.66641546 -0.38223759 41.89453125 -0.390625 C43.59144104 -0.4213208 43.59144104 -0.4213208 45.32263184 -0.45263672 C53.13018593 -0.45602064 61.38888317 0.29725344 67.7146759 5.37689209 C72.96199407 11.20929178 73.40930863 17.52936822 73.2421875 25.03125 C72.74516549 31.12377789 71.22511841 35.19878483 66.6875 39.375 C60.86132239 44.23693843 54.44638248 44.27926485 47.2265625 44.1953125 C46.3028183 44.1924826 45.3790741 44.18965271 44.42733765 44.18673706 C41.49309024 44.17559179 38.5591543 44.15049765 35.625 44.125 C33.62891068 44.11496289 31.63281654 44.10583832 29.63671875 44.09765625 C24.75759757 44.07737728 19.87914517 44.03821785 15 44 C15 49.94 15 55.88 15 62 C10.05 62 5.1 62 0 62 C0 41.54 0 21.08 0 0 Z M15 13 C15 18.94 15 24.88 15 31 C20.33940353 31.09188266 25.67606044 31.17150073 31.015625 31.21972656 C32.8314748 31.23983061 34.64725995 31.26711835 36.46289062 31.30175781 C39.07438105 31.35033039 41.68501498 31.37298027 44.296875 31.390625 C45.10743347 31.41127014 45.91799194 31.43191528 46.75311279 31.45318604 C50.37806777 31.45462615 52.53047469 31.34721664 55.48925781 29.15917969 C57.44568175 26.3630237 57.8611286 24.40234928 58 21 C57.25112009 17.77981637 56.53785786 16.42393459 53.93676758 14.3737793 C50.13508318 12.59540386 46.74356052 12.62354175 42.63671875 12.70703125 C41.84473587 12.71127609 41.05275299 12.71552094 40.23677063 12.71989441 C37.71999373 12.73661837 35.20403276 12.77425775 32.6875 12.8125 C30.97592307 12.82755501 29.26433351 12.84124199 27.55273438 12.85351562 C23.36792628 12.88394322 19.18487085 12.942673 15 13 Z " fill="#FFFFFF" transform="translate(0,113)"/>
<path d="M0 0 C4.95 0 9.9 0 15 0 C15.01458252 1.1144751 15.02916504 2.2289502 15.04418945 3.37719727 C15.1024208 7.5353916 15.17965114 11.69305841 15.26245117 15.85083008 C15.29558413 17.64599 15.32365187 19.44125117 15.34643555 21.23657227 C15.38019664 23.82612012 15.43252125 26.41474971 15.48828125 29.00390625 C15.49467117 29.79898087 15.5010611 30.59405548 15.50764465 31.41322327 C15.64352239 36.63205511 16.50854652 40.38071456 19 45 C27.24390618 50.37646055 38.1113194 49.82330676 47.58203125 48.69140625 C51.88998725 47.76062417 54.89368286 46.10631714 58 43 C58.88565586 40.34303242 59.1450262 38.71809917 59.20532227 35.98754883 C59.22526749 35.18694534 59.24521271 34.38634186 59.26576233 33.56147766 C59.28247482 32.70201035 59.29918732 31.84254303 59.31640625 30.95703125 C59.33718735 30.0734343 59.35796844 29.18983734 59.37937927 28.27946472 C59.44475754 25.45722215 59.50370528 22.63488665 59.5625 19.8125 C59.60569637 17.89907894 59.64931102 15.98566727 59.69335938 14.07226562 C59.80042695 9.38160563 59.90172752 4.69085217 60 0 C64.95 0 69.9 0 75 0 C75.09940302 6.10143362 75.17172047 12.20238847 75.21972656 18.30444336 C75.23975397 20.37711811 75.26698411 22.449737 75.30175781 24.5222168 C75.350668 27.51364996 75.37305793 30.50433155 75.390625 33.49609375 C75.41127014 34.41208847 75.43191528 35.32808319 75.45318604 36.27183533 C75.45558361 43.25712216 74.10683371 49.50217589 69.35455322 54.8525238 C60.48120758 63.27197498 46.74646963 64.52502715 35.0234375 64.25 C25.43654317 63.45728522 15.57318318 62.40068528 8 56 C7.071875 55.278125 6.14375 54.55625 5.1875 53.8125 C0.07318685 47.23695452 -0.44072473 39.12019406 -0.29296875 31.0546875 C-0.28872391 30.15879913 -0.28447906 29.26291077 -0.28010559 28.33987427 C-0.26350154 25.51792521 -0.22588593 22.69672801 -0.1875 19.875 C-0.17242946 17.94532292 -0.15874524 16.01563448 -0.14648438 14.0859375 C-0.1136583 9.39034153 -0.06200616 4.69529759 0 0 Z " fill="#FFFFFF" transform="translate(257,113)"/>
<path d="M0 0 C29.39608096 0.47024554 58.78479628 1.10689201 88.17281342 1.93482208 C90.48874002 1.99968464 92.80469733 2.06332514 95.1206665 2.12664795 C98.81383391 2.22788998 102.50688612 2.33264908 106.19987869 2.44007492 C108.20272753 2.49773925 110.2056567 2.55259217 112.20858765 2.60733032 C120.16311864 2.8448868 128.07145601 3.31436005 136 4 C135.34 5.32 134.68 6.64 134 8 C120.51537375 8.39577542 107.03062899 8.78722254 93.54572582 9.17345428 C87.28115475 9.35301228 81.01663033 9.53394687 74.75219727 9.71826172 C68.68328071 9.89676939 62.61426185 10.07135548 56.54516029 10.24345398 C54.25362591 10.30907911 51.96212853 10.37601285 49.67067528 10.44441223 C33.10940289 10.93751164 16.5683848 11.07659362 0 11 C0 7.37 0 3.74 0 0 Z " fill="#FFFFFF" transform="translate(294,66)"/>
<path d="M0 0 C4.95 0 9.9 0 15 0 C15 20.46 15 40.92 15 62 C10.05 62 5.1 62 0 62 C0 41.54 0 21.08 0 0 Z " fill="#FFFFFF" transform="translate(438,113)"/>
<path d="M0 0 C9.21132657 -0.82166763 15.26681812 1.87844034 23.4375 5.9375 C24.68173538 6.53853138 25.92686442 7.13771605 27.17285156 7.73510742 C29.64786856 8.92480817 32.1177481 10.12421703 34.58349609 11.33300781 C38.34834806 13.16996717 42.13549394 14.95389753 45.93066406 16.72705078 C54.35189304 20.66818594 62.67868103 24.79044682 70.97802734 28.98095703 C74.647238 30.8301825 78.32419102 32.66393607 82 34.5 C83.35419777 35.17702112 84.70836747 35.85409839 86.0625 36.53125 C87.5165625 37.25828125 87.5165625 37.25828125 89 38 C87.32641602 39.58544922 87.32641602 39.58544922 85 41 C82.56616211 40.66064453 82.56616211 40.66064453 79.77734375 39.6328125 C78.70226562 39.24891357 77.6271875 38.86501465 76.51953125 38.46948242 C75.33746094 38.02580322 74.15539062 37.58212402 72.9375 37.125 C71.68303987 36.67021276 70.4278062 36.21755454 69.171875 35.7668457 C66.36552705 34.75819124 63.56275444 33.74023162 60.76123047 32.71826172 C55.51595986 30.81467037 50.2457437 28.98501229 44.97265625 27.16015625 C44.02559311 26.83210999 43.07852997 26.50406372 42.10276794 26.16607666 C40.18494267 25.50191958 38.26707059 24.83789765 36.34915161 24.17401123 C11.78505811 15.66875864 11.78505811 15.66875864 0 11 C0 7.37 0 3.74 0 0 Z " fill="#FFFFFF" transform="translate(343,23)"/>
<path d="M0 0 C0 3.63 0 7.26 0 11 C-1.7951001 11.61089478 -1.7951001 11.61089478 -3.62646484 12.23413086 C-8.1927802 13.78831215 -12.75880198 15.34335445 -17.32473755 16.89865112 C-19.35239785 17.58922535 -21.38012778 18.2795952 -23.40792847 18.96975708 C-38.02161538 23.94157925 -38.02161538 23.94157925 -52.60546875 29 C-53.80703613 29.42031494 -55.00860352 29.84062988 -56.24658203 30.27368164 C-58.4065546 31.03178716 -60.56516093 31.79380023 -62.72216797 32.56030273 C-64.13006592 33.05445679 -64.13006592 33.05445679 -65.56640625 33.55859375 C-66.35990479 33.84017334 -67.15340332 34.12175293 -67.97094727 34.41186523 C-70 35 -70 35 -73 35 C-72.81103516 32.68408203 -72.81103516 32.68408203 -72 30 C-69.86474609 28.41357422 -69.86474609 28.41357422 -67.0234375 27.0546875 C-65.4448999 26.28330444 -65.4448999 26.28330444 -63.83447266 25.49633789 C-62.12203369 24.69377563 -62.12203369 24.69377563 -60.375 23.875 C-59.20888184 23.31095459 -58.04276367 22.74690918 -56.84130859 22.16577148 C-54.42330275 20.99634737 -52.00043829 19.83810578 -49.57226562 18.68994141 C-46.2350247 17.11118377 -42.90532955 15.51774599 -39.578125 13.91796875 C-36.63300914 12.50247749 -33.68634639 11.09143434 -30.73095703 9.69750977 C-26.86751358 7.87475172 -23.02538867 6.05754191 -19.2890625 3.984375 C-12.44618757 0.21991424 -7.83842898 -0.61882334 0 0 Z " fill="#FFFFFF" transform="translate(534,29)"/>
<path d="M0 0 C0.80493896 0.05989105 1.60987793 0.1197821 2.43920898 0.18148804 C5.10055608 0.3810003 7.7611865 0.58877745 10.421875 0.796875 C12.26266441 0.9370925 14.10348515 1.07689925 15.94433594 1.21630859 C19.76395866 1.50681056 23.58325624 1.80117871 27.40234375 2.09863281 C32.09620574 2.46421625 36.79055995 2.82285691 41.48516846 3.17871094 C44.96747974 3.44325236 48.44953955 3.71098165 51.93151855 3.9798584 C53.58486102 4.10733782 55.23826258 4.23405329 56.89172363 4.35998535 C59.19890178 4.53638013 61.5057278 4.71682079 63.8125 4.8984375 C65.76978027 5.05046631 65.76978027 5.05046631 67.76660156 5.20556641 C70.63486353 5.49305065 73.36303144 5.91424652 76.171875 6.546875 C76.171875 9.846875 76.171875 13.146875 76.171875 16.546875 C65.4775556 16.9059459 55.4881879 15.91099388 44.97265625 13.95703125 C43.47929616 13.68929052 41.98573562 13.42266572 40.49198914 13.15708923 C36.6101215 12.46372425 32.73126752 11.75476237 28.85284424 11.04241943 C24.89137451 10.31811515 20.9269495 9.61035905 16.96289062 8.90039062 C11.18388754 7.86201466 5.405578 6.81993413 -0.36987305 5.76196289 C-1.52376022 5.55100479 -2.6776474 5.34004669 -3.86650085 5.12269592 C-6.21444043 4.6661921 -8.51753013 4.16066162 -10.828125 3.546875 C-10.498125 2.556875 -10.168125 1.566875 -9.828125 0.546875 C-6.68235897 -1.02600801 -3.41984172 -0.27352079 0 0 Z " fill="#FFFFFF" transform="translate(471.828125,69.453125)"/>
<path d="M0 0 C5.4663296 -1.48689912 10.6606464 -2.35409957 16 0 C21.66714041 5.32337478 25.16133757 12.77660654 28.94189453 19.47705078 C32.19971305 25.1532243 35.92389705 30.53304124 39.59332275 35.94784546 C41.5404847 38.82608712 43.46615464 41.71851623 45.39453125 44.609375 C46.04268799 45.57842773 46.69084473 46.54748047 47.35864258 47.54589844 C51 52.9903317 51 52.9903317 51 56 C46.2043324 55.85467674 44.05158337 53.50232206 40.9375 50.20703125 C38.01956167 46.88317004 35.25502506 43.44225491 32.48828125 39.9921875 C29.29127145 36.14774557 25.90653097 32.4995382 22.45410156 28.8840332 C19 25.21173231 19 25.21173231 19 23 C18.34 23 17.68 23 17 23 C15.56450274 21.40665761 14.20172673 19.74748918 12.875 18.0625 C9.23055919 13.48479882 5.44719857 9.13114235 1.43359375 4.875 C0 3 0 3 0 0 Z " fill="#FFFFFF" transform="translate(386,0)"/>
<path d="M0 0 C1.53210939 0.88313145 3.04094339 1.80755699 4.52734375 2.765625 C5.39214355 3.31887451 6.25694336 3.87212402 7.14794922 4.44213867 C9.04248494 5.66995567 10.93600535 6.89934046 12.82861328 8.13012695 C17.93265886 11.43787213 23.05478558 14.64035864 28.33984375 17.65234375 C29.8568689 18.54228027 29.8568689 18.54228027 31.40454102 19.45019531 C33.3487495 20.58728643 35.31134844 21.69363429 37.29272461 22.76464844 C39.94870109 24.34817325 41.98673549 25.64888921 44 28 C44.78109021 31.79893875 44.59589445 35.18429778 44 39 C35.19580545 39.85596336 35.19580545 39.85596336 32.16333008 37.68530273 C30.04624774 35.84855632 28.01781516 33.94519997 26 32 C24.60820861 30.70167744 23.21628186 29.40349997 21.82421875 28.10546875 C19.73317395 26.12894765 17.64618833 24.14823684 15.56054688 22.16601562 C14.88443359 21.52728516 14.20832031 20.88855469 13.51171875 20.23046875 C12.90803467 19.65707764 12.30435059 19.08368652 11.68237305 18.49291992 C9.86244519 16.80908821 9.86244519 16.80908821 7 15 C7 14.34 7 13.68 7 13 C6.13568359 12.62875 6.13568359 12.62875 5.25390625 12.25 C2.6629194 10.81305755 0.97955193 9.14041667 -1.0625 7 C-3.33653856 4.62557202 -5.24521929 2.83652048 -8 1 C-8 0.34 -8 -0.32 -8 -1 C-4.29853331 -2.23382223 -3.44027762 -1.63745694 0 0 Z " fill="#FFFFFF" transform="translate(465,80)"/>
<path d="M0 0 C1.69083387 0.16845684 3.38014409 0.37170998 5.0546875 0.66015625 C5.94267678 9.00863073 5.94267678 9.00863073 4.0234375 12.578125 C2.14646059 14.7471825 0.13793285 16.68554639 -1.9453125 18.66015625 C-3.87201904 20.57305509 -5.78848877 22.49591352 -7.70483398 24.41918945 C-9.060479 25.7751569 -10.42188289 27.12539411 -11.78930664 28.46948242 C-12.42473389 29.0957251 -13.06016113 29.72196777 -13.71484375 30.3671875 C-14.57493042 31.20987183 -14.57493042 31.20987183 -15.45239258 32.06958008 C-17.15489165 33.79579902 -17.15489165 33.79579902 -18.9453125 36.66015625 C-19.6053125 36.66015625 -20.2653125 36.66015625 -20.9453125 36.66015625 C-21.2134375 37.25828125 -21.4815625 37.85640625 -21.7578125 38.47265625 C-22.94448656 40.65863479 -24.04130363 42.07348219 -25.9453125 43.66015625 C-26.6053125 43.66015625 -27.2653125 43.66015625 -27.9453125 43.66015625 C-29.10196123 40.29649669 -29.09199913 38.97513774 -27.56640625 35.69921875 C-26.85440891 34.55120391 -26.1250812 33.41383488 -25.3828125 32.28515625 C-24.54331112 30.97540531 -23.70624135 29.66409387 -22.87109375 28.3515625 C-22.40525879 27.62211426 -21.93942383 26.89266602 -21.45947266 26.14111328 C-19.74421741 23.3306612 -18.17951831 20.45853558 -16.61328125 17.5625 C-16.02812744 16.51562012 -15.44297363 15.46874023 -14.84008789 14.39013672 C-13.67412373 12.30333592 -12.53819645 10.19942338 -11.43530273 8.07861328 C-8.29848173 2.60305119 -6.59543344 0.01583918 0 0 Z " fill="#FFFFFF" transform="translate(483.9453125,13.33984375)"/>
<path d="M0 0 C3.63 0 7.26 0 11 0 C11.24199023 10.77864819 10.32504265 21.44994824 9.5 32.1875 C9.35509461 34.11260208 9.21056024 36.03773213 9.06640625 37.96289062 C8.71521626 42.64226062 8.3590001 47.32122299 8 52 C7.01 52 6.02 52 5 52 C1.95089544 48.95089544 2.41351243 45.26646013 2.1484375 41.15234375 C2.08467926 40.26648087 2.02092102 39.38061798 1.95523071 38.46791077 C1.82163677 36.58771388 1.69247955 34.70719736 1.56738281 32.82641602 C1.3773454 29.9727197 1.17432604 27.12019279 0.96875 24.26757812 C0.84037333 22.43755403 0.71274603 20.60747718 0.5859375 18.77734375 C0.52659027 17.93324448 0.46724304 17.0891452 0.40609741 16.21946716 C0.04911414 10.80070517 -0.05113888 5.43060825 0 0 Z " fill="#FFFFFF" transform="translate(440,0)"/>
<path d="M0 0 C0.48828125 2.4921875 0.48828125 2.4921875 0 6 C-2.28457155 9.038411 -5.03008972 11.54594731 -7.8125 14.125 C-9.27932154 15.52136286 -10.74423434 16.9197341 -12.20703125 18.3203125 C-12.8616333 18.93148926 -13.51623535 19.54266602 -14.19067383 20.17236328 C-16.06894124 21.9712329 -16.06894124 21.9712329 -17.56835938 24.20556641 C-19 26 -19 26 -21.69921875 26.390625 C-24.46614583 26.26041667 -27.23307292 26.13020833 -30 26 C-30 22.37 -30 18.74 -30 15 C-26.45904416 13.06119141 -22.91726738 11.12390972 -19.375 9.1875 C-18.37597656 8.64029297 -17.37695312 8.09308594 -16.34765625 7.52929688 C-2.56676136 0 -2.56676136 0 0 0 Z " fill="#FFFFFF" transform="translate(432,77)"/>
</svg>
