<?xml version="1.0" standalone="no"?>
<!DOCTYPE svg PUBLIC "-//W3C//DTD SVG 20010904//EN"
 "http://www.w3.org/TR/2001/REC-SVG-20010904/DTD/svg10.dtd">
<svg version="1.0" xmlns="http://www.w3.org/2000/svg"
 width="8001.000000pt" height="4500.000000pt" viewBox="0 0 8001.000000 4500.000000"
 preserveAspectRatio="xMidYMid meet">
<metadata>
Created by potrace 1.16, written by Peter Selinger 2001-2019
</metadata>
<g transform="translate(0.000000,4500.000000) scale(0.100000,-0.100000)"
fill="#000000" stroke="none">
<path d="M43400 31803 l0 -848 265 -3740 c146 -2057 268 -3754 271 -3771 4
-26 43 -63 263 -245 143 -117 263 -215 268 -216 4 -2 135 1794 291 3990 l283
3992 0 843 -1 842 -820 0 -820 0 0 -847z"/>
<path d="M26380 27186 c0 -650 3 -825 13 -829 6 -2 3320 -1175 7363 -2606
l7350 -2602 302 158 c166 87 301 160 302 163 0 3 -3078 1475 -6839 3273
l-6839 3267 -826 0 -826 0 0 -824z"/>
<path d="M52510 24345 l-5395 -2663 -102 -329 c-55 -180 -99 -330 -97 -332 2
-2 2850 974 6329 2170 l6325 2173 0 823 0 823 -832 -1 -833 -1 -5395 -2663z"/>
<path d="M47212 19783 c-133 -125 -239 -230 -235 -233 5 -4 3021 -536 6703
-1184 l6695 -1176 833 0 832 0 -2 822 -3 822 -7255 588 c-3990 323 -7271 587
-7290 587 -32 0 -57 -21 -278 -226z"/>
<path d="M39270 17350 l-2555 -1328 -3 -826 -2 -826 844 0 845 0 1587 1653
c874 908 1642 1707 1709 1775 l120 123 12 287 c14 345 16 472 6 471 -5 0
-1158 -598 -2563 -1329z"/>
</g>
</svg>
