<?xml version="1.0" encoding="UTF-8"?>
<svg version="1.1" xmlns="http://www.w3.org/2000/svg" width="97" height="96">
<path d="M0 0 C1.67542976 0.28604898 3.34385343 0.61781233 5 1 C5.21914063 1.99 5.43828125 2.98 5.6640625 4 C7.92122547 13.62584942 10.3374112 21.01151908 18.8125 26.875 C25.853162 30.83704554 33.14219864 31.88316274 41 30 C48.76464317 27.32297433 54.57795604 23.62809044 58.86328125 16.50390625 C61.09500592 11.58797665 62.00954764 6.28241257 63 1 C64.65614657 0.61781233 66.32457024 0.28604898 68 0 C69.59399326 1.59399326 69.2470667 3.22998725 69.3125 5.4375 C69.17560652 15.04742246 64.75949534 23.29181013 58 30 C47.88211665 37.48819576 38.25054405 38.94974777 26 38 C17.77277411 36.18020301 10.19158281 31.31239561 5.17578125 24.53515625 C0.34682765 16.75972249 -1.74368383 10.18363057 -1 1 C-0.67 0.67 -0.34 0.34 0 0 Z " fill="#3B3B3B" transform="translate(16,45)"/>
<path d="M0 0 C3.80105256 1.86543964 6.46784937 4.55697617 9.4140625 7.55859375 C10.01992188 8.14060547 10.62578125 8.72261719 11.25 9.32226562 C11.8171875 9.89138672 12.384375 10.46050781 12.96875 11.046875 C13.48679199 11.56419189 14.00483398 12.08150879 14.53857422 12.61450195 C15.5390625 14.24609375 15.5390625 14.24609375 15.38720703 16.38354492 C15.10731934 16.99818604 14.82743164 17.61282715 14.5390625 18.24609375 C13.5490625 18.57609375 12.5590625 18.90609375 11.5390625 19.24609375 C8.8990625 16.93609375 6.2590625 14.62609375 3.5390625 12.24609375 C3.2090625 23.13609375 2.8790625 34.02609375 2.5390625 45.24609375 C0.0640625 45.74109375 0.0640625 45.74109375 -2.4609375 46.24609375 C-4.41191835 44.2951129 -3.71508858 40.59934446 -3.77734375 37.9296875 C-3.79812485 37.19863297 -3.81890594 36.46757843 -3.84031677 35.71437073 C-3.90588774 33.37087719 -3.96473182 31.02726836 -4.0234375 28.68359375 C-4.06661558 27.0982952 -4.11022963 25.51300846 -4.15429688 23.92773438 C-4.2615767 20.03397338 -4.3628224 16.14009603 -4.4609375 12.24609375 C-4.86070801 12.68066895 -5.26047852 13.11524414 -5.67236328 13.56298828 C-6.2032959 14.12099121 -6.73422852 14.67899414 -7.28125 15.25390625 C-7.80477051 15.81223145 -8.32829102 16.37055664 -8.86767578 16.94580078 C-10.4609375 18.24609375 -10.4609375 18.24609375 -13.3359375 18.12109375 C-14.3878125 17.68796875 -14.3878125 17.68796875 -15.4609375 17.24609375 C-15.10716642 11.95918146 -12.29246431 9.40998333 -8.7109375 5.87109375 C-8.185 5.31292969 -7.6590625 4.75476563 -7.1171875 4.1796875 C-4.84807264 1.90495602 -3.26826684 0.32682668 0 0 Z " fill="#3B3B3B" transform="translate(50.4609375,12.75390625)"/>
</svg>
