<?xml version="1.0" encoding="UTF-8"?>
<svg version="1.1" xmlns="http://www.w3.org/2000/svg" width="165" height="128">
<path d="M0 0 C0.87430664 -0.00630432 1.74861328 -0.01260864 2.64941406 -0.019104 C4.06818848 -0.01303131 4.06818848 -0.01303131 5.515625 -0.00683594 C6.48467773 -0.00874939 7.45373047 -0.01066284 8.45214844 -0.01263428 C10.50325785 -0.01399673 12.55437586 -0.01029612 14.60546875 -0.00195312 C17.75280039 0.00874547 20.8995612 -0.00184647 24.046875 -0.01464844 C26.0364596 -0.01332685 28.02604384 -0.01076448 30.015625 -0.00683594 C30.96147461 -0.0108844 31.90732422 -0.01493286 32.88183594 -0.019104 C33.75614258 -0.01279968 34.63044922 -0.00649536 35.53125 0 C36.68802246 0.00238678 36.68802246 0.00238678 37.86816406 0.00482178 C39.765625 0.25878906 39.765625 0.25878906 41.765625 2.25878906 C41.890625 5.38378906 41.890625 5.38378906 41.765625 8.25878906 C43.18875 8.19691406 43.18875 8.19691406 44.640625 8.13378906 C47.765625 8.25878906 47.765625 8.25878906 49.765625 10.25878906 C49.99267578 12.50537109 49.99267578 12.50537109 49.9609375 15.26660156 C49.95449219 16.25273437 49.94804688 17.23886719 49.94140625 18.25488281 C49.91626953 19.80369141 49.91626953 19.80369141 49.890625 21.38378906 C49.88160156 22.4240625 49.87257813 23.46433594 49.86328125 24.53613281 C49.83966247 27.11057999 49.80672649 29.68457118 49.765625 32.25878906 C50.91804688 32.1853125 50.91804688 32.1853125 52.09375 32.11035156 C54.765625 32.25878906 54.765625 32.25878906 57.515625 34.63378906 C61.96303732 39.82243677 60.98766491 45.43801498 61.00585938 51.95239258 C61.01554061 54.05297817 61.04655184 56.15257481 61.078125 58.25292969 C61.08465786 59.59472077 61.08990722 60.93651883 61.09375 62.27832031 C61.1030957 63.49624268 61.11244141 64.71416504 61.12207031 65.96899414 C60.73495733 69.54183486 59.91521283 71.41022539 57.765625 74.25878906 C55.05683165 75.61318574 52.75629232 75.32380357 49.765625 75.25878906 C49.78882812 76.02964844 49.81203125 76.80050781 49.8359375 77.59472656 C49.85398437 78.59761719 49.87203125 79.60050781 49.890625 80.63378906 C49.91382812 81.63152344 49.93703125 82.62925781 49.9609375 83.65722656 C49.765625 86.25878906 49.765625 86.25878906 47.765625 88.25878906 C44.640625 88.38378906 44.640625 88.38378906 41.765625 88.25878906 C41.806875 89.20753906 41.848125 90.15628906 41.890625 91.13378906 C41.765625 94.25878906 41.765625 94.25878906 39.765625 96.25878906 C37.86816406 96.51275635 37.86816406 96.51275635 35.53125 96.51757812 C34.65694336 96.52388245 33.78263672 96.53018677 32.88183594 96.53668213 C31.46306152 96.53060944 31.46306152 96.53060944 30.015625 96.52441406 C29.04657227 96.52632751 28.07751953 96.52824097 27.07910156 96.5302124 C25.02799215 96.53157485 22.97687414 96.52787424 20.92578125 96.51953125 C17.77844961 96.50883266 14.6316888 96.5194246 11.484375 96.53222656 C9.4947904 96.53090498 7.50520616 96.52834261 5.515625 96.52441406 C4.56977539 96.52846252 3.62392578 96.53251099 2.64941406 96.53668213 C1.3379541 96.52722565 1.3379541 96.52722565 0 96.51757812 C-0.77118164 96.51598694 -1.54236328 96.51439575 -2.33691406 96.51275635 C-4.234375 96.25878906 -4.234375 96.25878906 -6.234375 94.25878906 C-6.359375 91.13378906 -6.359375 91.13378906 -6.234375 88.25878906 C-7.183125 88.30003906 -8.131875 88.34128906 -9.109375 88.38378906 C-12.234375 88.25878906 -12.234375 88.25878906 -14.234375 86.25878906 C-14.4296875 83.65722656 -14.4296875 83.65722656 -14.359375 80.63378906 C-14.34132813 79.63089844 -14.32328125 78.62800781 -14.3046875 77.59472656 C-14.28148437 76.82386719 -14.25828125 76.05300781 -14.234375 75.25878906 C-15.12125 75.36191406 -16.008125 75.46503906 -16.921875 75.57128906 C-20.234375 75.25878906 -20.234375 75.25878906 -22.90429688 73.18261719 C-25.7893402 69.56240776 -25.8543114 67.74765895 -25.828125 63.16503906 C-25.82816528 62.49589478 -25.82820557 61.82675049 -25.82824707 61.1373291 C-25.82290779 59.72866373 -25.80539258 58.31999752 -25.77636719 56.91162109 C-25.73449013 54.76469159 -25.73530365 52.62090227 -25.7421875 50.47363281 C-25.65267834 38.7561328 -25.65267834 38.7561328 -22.234375 34.25878906 C-19.00645945 32.10684536 -17.95036691 32.05792464 -14.234375 32.25878906 C-14.24484863 31.60281738 -14.25532227 30.9468457 -14.26611328 30.27099609 C-14.30760003 27.30863248 -14.33367762 24.3463299 -14.359375 21.38378906 C-14.37613281 20.35125 -14.39289062 19.31871094 -14.41015625 18.25488281 C-14.41660156 17.26875 -14.42304687 16.28261719 -14.4296875 15.26660156 C-14.44016113 14.35539551 -14.45063477 13.44418945 -14.46142578 12.50537109 C-14.234375 10.25878906 -14.234375 10.25878906 -12.234375 8.25878906 C-9.109375 8.13378906 -9.109375 8.13378906 -6.234375 8.25878906 C-6.275625 7.31003906 -6.316875 6.36128906 -6.359375 5.38378906 C-6.16565606 0.54081546 -4.3994601 0.00907745 0 0 Z " fill="#5CACEB" transform="translate(66.234375,15.7412109375)"/>
<path d="M0 0 C15.84 0 31.68 0 48 0 C48.04125 4.41375 48.0825 8.8275 48.125 13.375 C48.14320801 14.76638184 48.16141602 16.15776367 48.18017578 17.59130859 C48.1851709 18.68266113 48.19016602 19.77401367 48.1953125 20.8984375 C48.21102295 22.57945557 48.21102295 22.57945557 48.22705078 24.29443359 C48 27 48 27 46 29 C44.10253906 29.25396729 44.10253906 29.25396729 41.765625 29.25878906 C40.45416504 29.26824554 40.45416504 29.26824554 39.11621094 29.27789307 C37.69743652 29.27182037 37.69743652 29.27182037 36.25 29.265625 C35.28094727 29.26753845 34.31189453 29.2694519 33.31347656 29.27142334 C31.26236715 29.27278579 29.21124914 29.26908518 27.16015625 29.26074219 C24.01282461 29.25004359 20.8660638 29.26063554 17.71875 29.2734375 C15.7291654 29.27211592 13.73958116 29.26955355 11.75 29.265625 C10.80415039 29.26967346 9.85830078 29.27372192 8.88378906 29.27789307 C8.00948242 29.27158875 7.13517578 29.26528442 6.234375 29.25878906 C5.46319336 29.25719788 4.69201172 29.25560669 3.89746094 29.25396729 C2 29 2 29 0 27 C-0.22705078 24.29443359 -0.22705078 24.29443359 -0.1953125 20.8984375 C-0.19031738 19.80708496 -0.18532227 18.71573242 -0.18017578 17.59130859 C-0.16196777 16.19992676 -0.14375977 14.80854492 -0.125 13.375 C-0.08375 8.96125 -0.0425 4.5475 0 0 Z " fill="#DEE5EA" transform="translate(60,83)"/>
<path d="M0 0 C0.87430664 -0.00630432 1.74861328 -0.01260864 2.64941406 -0.019104 C4.06818848 -0.01303131 4.06818848 -0.01303131 5.515625 -0.00683594 C6.48467773 -0.00874939 7.45373047 -0.01066284 8.45214844 -0.01263428 C10.50325785 -0.01399673 12.55437586 -0.01029612 14.60546875 -0.00195312 C17.75280039 0.00874547 20.8995612 -0.00184647 24.046875 -0.01464844 C26.0364596 -0.01332685 28.02604384 -0.01076448 30.015625 -0.00683594 C30.96147461 -0.0108844 31.90732422 -0.01493286 32.88183594 -0.019104 C33.75614258 -0.01279968 34.63044922 -0.00649536 35.53125 0 C36.68802246 0.00238678 36.68802246 0.00238678 37.86816406 0.00482178 C39.765625 0.25878906 39.765625 0.25878906 41.765625 2.25878906 C41.99267578 4.96435547 41.99267578 4.96435547 41.9609375 8.36035156 C41.95594238 9.4517041 41.95094727 10.54305664 41.94580078 11.66748047 C41.92759277 13.0588623 41.90938477 14.45024414 41.890625 15.88378906 C41.849375 20.29753906 41.808125 24.71128906 41.765625 29.25878906 C25.925625 29.25878906 10.085625 29.25878906 -6.234375 29.25878906 C-6.29625 22.63816406 -6.29625 22.63816406 -6.359375 15.88378906 C-6.37758301 14.49240723 -6.39579102 13.10102539 -6.41455078 11.66748047 C-6.4195459 10.57612793 -6.42454102 9.48477539 -6.4296875 8.36035156 C-6.44539795 6.6793335 -6.44539795 6.6793335 -6.46142578 4.96435547 C-6.07899608 0.40727383 -4.09702487 0.00845343 0 0 Z " fill="#E1E8ED" transform="translate(66.234375,15.7412109375)"/>
<path d="M0 0 C1.98 0 3.96 0 6 0 C6 6.93 6 13.86 6 21 C21.84 21 37.68 21 54 21 C54 14.07 54 7.14 54 0 C55.98 0 57.96 0 60 0 C63.49500971 3.49500971 62.30394888 8.67972804 62.32226562 13.40429688 C62.32009033 14.14800537 62.31791504 14.89171387 62.31567383 15.65795898 C62.31251677 17.92545747 62.3359576 20.1916476 62.36132812 22.45898438 C62.36360141 23.89843585 62.36430448 25.33789084 62.36328125 26.77734375 C62.36626221 28.08952881 62.36924316 29.40171387 62.37231445 30.75366211 C62 34 62 34 60.82780457 35.67863464 C58.28485472 37.5169963 56.50552488 37.380838 53.3828125 37.38818359 C52.23151855 37.39764008 51.08022461 37.40709656 49.89404297 37.4168396 C48.65025879 37.41076691 47.40647461 37.40469421 46.125 37.3984375 C44.84898926 37.40130768 43.57297852 37.40417786 42.25830078 37.40713501 C39.55795884 37.40917835 36.85842919 37.40513392 34.15820312 37.39111328 C30.6978077 37.37402089 27.23811029 37.38386307 23.77774048 37.40183067 C20.47680194 37.41528016 17.17594764 37.40586244 13.875 37.3984375 C12.00932373 37.40754654 12.00932373 37.40754654 10.10595703 37.4168396 C8.37901611 37.40265488 8.37901611 37.40265488 6.6171875 37.38818359 C5.60253418 37.38579681 4.58788086 37.38341003 3.54248047 37.38095093 C1 37 1 37 -0.82780457 35.67863464 C-2.77957907 32.88360899 -2.37088197 30.12309665 -2.36328125 26.77734375 C-2.36377975 26.0760585 -2.36427826 25.37477325 -2.36479187 24.65223694 C-2.3624542 23.17201906 -2.35274363 21.69179699 -2.33618164 20.21166992 C-2.31254879 17.94218565 -2.31562728 15.67387324 -2.32226562 13.40429688 C-2.27913434 2.27913434 -2.27913434 2.27913434 0 0 Z " fill="#458AC1" transform="translate(54,24)"/>
<path d="M0 0 C1.10794922 -0.00945648 2.21589844 -0.01891296 3.35742188 -0.02865601 C4.54916016 -0.02258331 5.74089844 -0.01651062 6.96875 -0.01025391 C8.19658203 -0.01312408 9.42441406 -0.01599426 10.68945312 -0.01895142 C13.28516094 -0.02099272 15.88088412 -0.01545833 18.4765625 -0.00292969 C22.45347435 0.01312194 26.42936982 -0.00277732 30.40625 -0.02197266 C32.92708558 -0.01999024 35.44792053 -0.01614659 37.96875 -0.01025391 C39.75635742 -0.01936295 39.75635742 -0.01936295 41.58007812 -0.02865601 C43.24200195 -0.01447128 43.24200195 -0.01447128 44.9375 0 C46.39833008 0.00358017 46.39833008 0.00358017 47.88867188 0.00723267 C50.90480772 0.45256792 52.28628769 1.28785569 54.46875 3.38818359 C54.95458984 5.71655273 54.95458984 5.71655273 54.9296875 8.42333984 C54.92582031 9.39722656 54.92195313 10.37111328 54.91796875 11.37451172 C54.88123047 12.8972168 54.88123047 12.8972168 54.84375 14.45068359 C54.84246094 15.4696875 54.84117188 16.48869141 54.83984375 17.53857422 C54.74955986 25.10737373 54.74955986 25.10737373 52.46875 27.38818359 C50.48875 27.38818359 48.50875 27.38818359 46.46875 27.38818359 C46.46875 20.45818359 46.46875 13.52818359 46.46875 6.38818359 C30.62875 6.38818359 14.78875 6.38818359 -1.53125 6.38818359 C-1.53125 13.31818359 -1.53125 20.24818359 -1.53125 27.38818359 C-3.51125 27.38818359 -5.49125 27.38818359 -7.53125 27.38818359 C-10.96661178 23.95282182 -9.90035917 19.107385 -9.90625 14.45068359 C-9.93074219 13.43554688 -9.95523438 12.42041016 -9.98046875 11.37451172 C-9.98433594 10.400625 -9.98820312 9.42673828 -9.9921875 8.42333984 C-10.00040527 7.5301001 -10.00862305 6.63686035 -10.01708984 5.71655273 C-9.53125 3.38818359 -9.53125 3.38818359 -7.84658813 1.766922 C-5.01677811 0.08182568 -3.28068395 0.00804023 0 0 Z " fill="#2F383F" transform="translate(61.53125,76.61181640625)"/>
<path d="M0 0 C15.84 0 31.68 0 48 0 C48 1.65 48 3.3 48 5 C32.16 5 16.32 5 0 5 C0 3.35 0 1.7 0 0 Z " fill="#9AAAB4" transform="translate(60,83)"/>
<path d="M0 0 C11.88 0 23.76 0 36 0 C35.67 1.65 35.34 3.3 35 5 C30.19450253 5.02468447 25.38904182 5.04285255 20.58349609 5.05493164 C18.94807289 5.05996621 17.3126542 5.06679427 15.67724609 5.07543945 C13.32909025 5.08754335 10.98099381 5.093237 8.6328125 5.09765625 C7.53273361 5.10539818 7.53273361 5.10539818 6.41043091 5.11329651 C1.22774341 5.11387171 1.22774341 5.11387171 -1 4 C-0.67 2.68 -0.34 1.36 0 0 Z " fill="#9AAAB4" transform="translate(66,99)"/>
<path d="M0 0 C11.88 0 23.76 0 36 0 C35.67 1.65 35.34 3.3 35 5 C30.19450253 5.02468447 25.38904182 5.04285255 20.58349609 5.05493164 C18.94807289 5.05996621 17.3126542 5.06679427 15.67724609 5.07543945 C13.32909025 5.08754335 10.98099381 5.093237 8.6328125 5.09765625 C7.53273361 5.10539818 7.53273361 5.10539818 6.41043091 5.11329651 C1.22774341 5.11387171 1.22774341 5.11387171 -1 4 C-0.67 2.68 -0.34 1.36 0 0 Z " fill="#9AAAB4" transform="translate(66,91)"/>
<path d="M0 0 C1.98 0 3.96 0 6 0 C8 2 8 2 8.22705078 3.97119141 C8.21134033 5.1494751 8.21134033 5.1494751 8.1953125 6.3515625 C8.18564453 7.62773437 8.18564453 7.62773437 8.17578125 8.9296875 C8.15902344 9.81914063 8.14226562 10.70859375 8.125 11.625 C8.11597656 12.5221875 8.10695313 13.419375 8.09765625 14.34375 C8.0740497 16.56276586 8.0411231 18.78125077 8 21 C5.36 21 2.72 21 0 21 C0 14.07 0 7.14 0 0 Z " fill="#66757E" transform="translate(108,24)"/>
<path d="M0 0 C1.98 0 3.96 0 6 0 C6 6.93 6 13.86 6 21 C3.36 21 0.72 21 -2 21 C-2.05791844 17.87507749 -2.09356746 14.75029234 -2.125 11.625 C-2.14175781 10.73554687 -2.15851562 9.84609375 -2.17578125 8.9296875 C-2.18222656 8.07890625 -2.18867187 7.228125 -2.1953125 6.3515625 C-2.20578613 5.56604004 -2.21625977 4.78051758 -2.22705078 3.97119141 C-2 2 -2 2 0 0 Z " fill="#66747F" transform="translate(54,24)"/>
<path d="M0 0 C2.64 0 5.28 0 8 0 C8.05399736 1.45792884 8.09279177 2.91642712 8.125 4.375 C8.14820312 5.18710938 8.17140625 5.99921875 8.1953125 6.8359375 C8 9 8 9 6 11 C2.875 11.125 2.875 11.125 0 11 C0 7.37 0 3.74 0 0 Z " fill="#64727C" transform="translate(108,93)"/>
<path d="M0 0 C2.64 0 5.28 0 8 0 C8 3.63 8 7.26 8 11 C5.125 11.125 5.125 11.125 2 11 C0 9 0 9 -0.1953125 6.8359375 C-0.17210937 6.02382812 -0.14890625 5.21171875 -0.125 4.375 C-0.10695312 3.55773437 -0.08890625 2.74046875 -0.0703125 1.8984375 C-0.04710937 1.27195312 -0.02390625 0.64546875 0 0 Z " fill="#64727C" transform="translate(52,93)"/>
<path d="M0 0 C4.70588235 0.70588235 4.70588235 0.70588235 6 2 C6.04063832 3.66617115 6.042721 5.33388095 6 7 C3.125 7.625 3.125 7.625 0 8 C-0.66 7.34 -1.32 6.68 -2 6 C-1.44444444 1.44444444 -1.44444444 1.44444444 0 0 Z " fill="#E7F1F8" transform="translate(115,64)"/>
</svg>
