<?xml version="1.0" encoding="UTF-8"?>
<svg version="1.1" xmlns="http://www.w3.org/2000/svg" width="96" height="96">
<path d="M0 0 C6.37965583 -0.4370314 12.75538384 -0.73102138 19.14672852 -0.93383789 C21.31160492 -1.01847992 23.47553485 -1.13386737 25.63696289 -1.2824707 C36.19677808 -1.9893937 45.83897871 -2.03626251 54.70852661 4.39846802 C61.8413791 10.7346615 64.74920895 17.36315569 65.46646023 26.7735815 C65.84803034 34.26552123 65.53923634 41.74026129 65.16729736 49.22595215 C64.96000212 53.8477788 64.88427494 58.4735414 64.78559113 63.09871674 C64.62247295 70.07375587 64.29657683 77.02366007 64 84 C42.88 84 21.76 84 0 84 C0 64.53 0 45.06 0 25 C-6.6 25 -13.2 25 -20 25 C-20 18.07 -20 11.14 -20 4 C-13.4 4 -6.8 4 0 4 C0 2.68 0 1.36 0 0 Z " fill="#F1F0F0" transform="translate(26,6)"/>
<path d="M0 0 C20.13 0 40.26 0 61 0 C61 6.93 61 13.86 61 21 C40.87 21 20.74 21 0 21 C0 14.07 0 7.14 0 0 Z " fill="#D7272C" transform="translate(6,10)"/>
<path d="M0 0 C0.66 0.33 1.32 0.66 2 1 C2.07568059 4.70834884 2.00401022 7.98061727 1.25 11.625 C0.74637414 14.99569405 0.74637414 14.99569405 2.1875 17.875 C6.07871231 20.81502708 9.43899337 20.60493193 14.22265625 20.6640625 C17 21 17 21 18.87109375 22.5234375 C19.24363281 23.01070312 19.61617187 23.49796875 20 24 C19.34 25.32 18.68 26.64 18 28 C14.09542794 28.37186401 12.48973177 28.37584066 9.3125 25.9375 C4.47677773 23.10905867 0.37370385 24.12031894 -5 25 C-5.28359375 25.75796875 -5.5671875 26.5159375 -5.859375 27.296875 C-7.37338727 30.88487668 -9.24882633 33.24882633 -12 36 C-15.3125 36.875 -15.3125 36.875 -18 37 C-18.33 35.35 -18.66 33.7 -19 32 C-17.73608512 30.99126984 -16.46359117 29.99328178 -15.1875 29 C-14.47980469 28.443125 -13.77210937 27.88625 -13.04296875 27.3125 C-11 26 -11 26 -8 26 C-6.04911777 20.38145918 -4.36827653 14.78886224 -3 9 C-2.34 9 -1.68 9 -1 9 C-0.67 6.03 -0.34 3.06 0 0 Z " fill="#DF3237" transform="translate(58,38)"/>
<path d="M0 0 C6 0 6 0 8.375 1.5625 C10.62340519 4.93510779 10.56783945 7.02512383 10 11 C8.375 13.4375 8.375 13.4375 6 15 C4.02 15 2.04 15 0 15 C0 10.05 0 5.1 0 0 Z " fill="#F0D6D7" transform="translate(33,13)"/>
<path d="M0 0 C1.875 0.3125 1.875 0.3125 4 1 C4.66 1.99 5.32 2.98 6 4 C8.78894507 4.47246799 8.78894507 4.47246799 11.9375 4.5 C17.58869329 4.66479786 17.58869329 4.66479786 19.87890625 6.53125 C20.24886719 7.0159375 20.61882812 7.500625 21 8 C20.34 9.32 19.68 10.64 19 12 C15.03611296 12.37751305 13.42571891 12.30540704 10.125 9.9375 C5.84583878 7.28442004 3.86095709 8.18984048 -1 9 C-1.66 8.34 -2.32 7.68 -3 7 C-2.01 4.69 -1.02 2.38 0 0 Z " fill="#E4676A" transform="translate(57,54)"/>
<path d="M0 0 C1.98 0 3.96 0 6 0 C8 2 8 2 8.25 5 C8 8 8 8 6 10 C5.01 10 4.02 10 3 10 C3 11.65 3 13.3 3 15 C2.01 15 1.02 15 0 15 C0 10.05 0 5.1 0 0 Z " fill="#FBFBFB" transform="translate(23,13)"/>
<path d="M0 0 C2.31 0 4.62 0 7 0 C7 0.99 7 1.98 7 3 C5.68 3 4.36 3 3 3 C3 3.99 3 4.98 3 6 C4.32 6 5.64 6 7 6 C7 6.99 7 7.98 7 9 C5.68 9 4.36 9 3 9 C3 10.98 3 12.96 3 15 C2.01 15 1.02 15 0 15 C0 10.05 0 5.1 0 0 Z " fill="#F5EAEA" transform="translate(45,13)"/>
<path d="M0 0 C0.99 0.33 1.98 0.66 3 1 C3.25 3.8125 3.25 3.8125 3 7 C1.3125 8.9375 1.3125 8.9375 -1 10 C-3.75 9.6875 -3.75 9.6875 -6 9 C-5.70381606 5.44579276 -5.19662957 4.19662957 -2.625 1.625 C-1.325625 0.820625 -1.325625 0.820625 0 0 Z " fill="#E14C50" transform="translate(45,65)"/>
<path d="M0 0 C1.65 0 3.3 0 5 0 C4.34 3.3 3.68 6.6 3 10 C2.01 10 1.02 10 0 10 C-0.19412181 8.52168779 -0.38012131 7.04230684 -0.5625 5.5625 C-0.66691406 4.73878906 -0.77132812 3.91507813 -0.87890625 3.06640625 C-0.91886719 2.38449219 -0.95882812 1.70257813 -1 1 C-0.67 0.67 -0.34 0.34 0 0 Z " fill="#EA9EA0" transform="translate(54,37)"/>
<path d="M0 0 C2.875 -0.125 2.875 -0.125 6 0 C8 2 8 2 8.125 5.125 C8.08375 6.07375 8.0425 7.0225 8 8 C6.02 8.99 6.02 8.99 4 10 C3 8 3 8 3.125 5 C3.063125 3.515 3.063125 3.515 3 2 C2.01 1.34 1.02 0.68 0 0 Z " fill="#EEBEBF" transform="translate(23,13)"/>
<path d="M0 0 C6.52307692 -0.36923077 6.52307692 -0.36923077 8.9375 1.5 C9.288125 1.995 9.63875 2.49 10 3 C9.34 4.32 8.68 5.64 8 7 C2.70558305 7.50423019 0.18586481 6.18923033 -4 3 C-3.34 2.34 -2.68 1.68 -2 1 C-2 1.66 -2 2.32 -2 3 C2.455 3.99 2.455 3.99 7 5 C7 4.01 7 3.02 7 2 C4.69 1.67 2.38 1.34 0 1 C0 0.67 0 0.34 0 0 Z " fill="#E1484C" transform="translate(68,59)"/>
<path d="M0 0 C1.65 1.65 3.3 3.3 5 5 C2.08235 6.9451 0.37462715 7.45276317 -3 8 C-2.01 5.36 -1.02 2.72 0 0 Z " fill="#F2E7E7" transform="translate(57,54)"/>
<path d="M0 0 C0.99 0.33 1.98 0.66 3 1 C3.1875 3.875 3.1875 3.875 3 7 C2.01 7.66 1.02 8.32 0 9 C0 6.03 0 3.06 0 0 Z " fill="#DF383D" transform="translate(37,16)"/>
<path d="M0 0 C-1.15173355 2.46800047 -2.04783565 4.04783565 -4 6 C-4.99 6 -5.98 6 -7 6 C-5.52522876 2.59668175 -4.14385429 0 0 0 Z " fill="#F2E6E7" transform="translate(47,67)"/>
<path d="M0 0 C2.97 0 5.94 0 9 0 C9 0.99 9 1.98 9 3 C2.25 2.25 2.25 2.25 0 0 Z " fill="#F2E4E4" transform="translate(66,61)"/>
<path d="M0 0 C0.33 0.99 0.66 1.98 1 3 C-0.32 4.32 -1.64 5.64 -3 7 C-3.33 6.34 -3.66 5.68 -4 5 C-3.67 4.34 -3.34 3.68 -3 3 C-3.66 2.67 -4.32 2.34 -5 2 C-3.35 1.34 -1.7 0.68 0 0 Z " fill="#DE2B2F" transform="translate(51,63)"/>
</svg>
