<?xml version="1.0" encoding="UTF-8"?>
<svg version="1.1" xmlns="http://www.w3.org/2000/svg" width="96" height="96">
<path d="M0 0 C0 2.31 0 4.62 0 7 C1.49164673 6.99214478 1.49164673 6.99214478 3.01342773 6.98413086 C6.69033921 6.96607959 10.36724675 6.95456754 14.04418945 6.94506836 C15.63794614 6.94002843 17.23169819 6.9331965 18.82543945 6.92456055 C21.11150253 6.91248001 23.39750467 6.90676845 25.68359375 6.90234375 C26.40026718 6.89718246 27.11694061 6.89202118 27.85533142 6.88670349 C29.57063672 6.88650737 31.28581266 6.93807993 33 7 C34 8 34 8 34.12025452 10.58790588 C34.11803391 11.74040329 34.11581329 12.8929007 34.11352539 14.08032227 C34.11341209 16.03223228 34.11341209 16.03223228 34.11329651 18.02357483 C34.10818909 19.45451902 34.10297308 20.88546282 34.09765625 22.31640625 C34.09579203 23.7722926 34.09436815 25.22817957 34.09336853 26.68406677 C34.08954365 30.52279379 34.07971364 34.36148319 34.06866455 38.20019531 C34.05844978 42.11457816 34.05387077 46.02896706 34.04882812 49.94335938 C34.03809134 57.62892343 34.02101529 65.31445645 34 73 C31.04189524 74.47905238 28.0452845 74.12190903 24.8046875 74.09765625 C24.09724396 74.0962413 23.38980042 74.09482635 22.66091919 74.09336853 C20.39890331 74.087766 18.13698602 74.07521318 15.875 74.0625 C14.34244935 74.05748532 12.80989714 74.05292236 11.27734375 74.04882812 C7.51819112 74.03779577 3.75911228 74.02052952 0 74 C0 77.3 0 80.6 0 84 C-10.5492612 83.30967968 -20.80623581 81.34837151 -31.1875 79.4375 C-37.395625 78.303125 -43.60375 77.16875 -50 76 C-50 53.23 -50 30.46 -50 7 C-42.86375 5.845 -35.7275 4.69 -28.375 3.5 C-25.01127197 2.95182617 -25.01127197 2.95182617 -21.57958984 2.39257812 C-19.79009875 2.10509699 -18.00055162 1.81796428 -16.2109375 1.53125 C-15.29159424 1.38010742 -14.37225098 1.22896484 -13.42504883 1.07324219 C-8.89920553 0.35263676 -4.6012766 -0.18644826 0 0 Z M0 11 C0 12.65 0 14.3 0 16 C2.64 16 5.28 16 8 16 C8 18.31 8 20.62 8 23 C5.36 23 2.72 23 0 23 C0 23.99 0 24.98 0 26 C2.31 26.33 4.62 26.66 7 27 C7.33 29.31 7.66 31.62 8 34 C5.36 34 2.72 34 0 34 C0 34.99 0 35.98 0 37 C2.64 37 5.28 37 8 37 C8 39.31 8 41.62 8 44 C5.36 44 2.72 44 0 44 C0 44.99 0 45.98 0 47 C2.31 47.33 4.62 47.66 7 48 C7.33 50.31 7.66 52.62 8 55 C5.36 55 2.72 55 0 55 C0 55.99 0 56.98 0 58 C2.64 58 5.28 58 8 58 C8 60.31 8 62.62 8 65 C5.36 65 2.72 65 0 65 C0 66.65 0 68.3 0 70 C9.9 70 19.8 70 30 70 C30 50.53 30 31.06 30 11 C20.1 11 10.2 11 0 11 Z " fill="#20744A" transform="translate(56,6)"/>
<path d="M0 0 C1.98 0 3.96 0 6 0 C4.6965732 4.344756 2.96702698 8.06757528 0.70703125 11.97265625 C-0.54566677 15.56464672 0.66061859 18.2578118 2.19140625 21.60546875 C2.87009766 22.88357422 2.87009766 22.88357422 3.5625 24.1875 C6 28.79320113 6 28.79320113 6 31 C4.02 31 2.04 31 0 31 C-1.65 27.7 -3.3 24.4 -5 21 C-6.98 25.455 -6.98 25.455 -9 30 C-10.98 30 -12.96 30 -15 30 C-14.00557619 26.78724616 -12.99319631 23.98815654 -11.3125 21.0625 C-8.91290673 15.46344904 -10.93237968 10.95626896 -13.0625 5.5625 C-13.7007336 4.03846175 -14.34398256 2.51646821 -15 1 C-12.69 1 -10.38 1 -8 1 C-7.01 3.64 -6.02 6.28 -5 9 C-2.67527795 6.14693203 -1.2491742 3.45925163 0 0 Z " fill="#F6F9F7" transform="translate(34,31)"/>
<path d="M0 0 C4.62 0 9.24 0 14 0 C14 2.64 14 5.28 14 8 C9.38 8 4.76 8 0 8 C0 5.36 0 2.72 0 0 Z " fill="#207349" transform="translate(67,53)"/>
<path d="M0 0 C4.62 0 9.24 0 14 0 C14 2.64 14 5.28 14 8 C9.38 8 4.76 8 0 8 C0 5.36 0 2.72 0 0 Z " fill="#207349" transform="translate(67,32)"/>
<path d="M0 0 C4.62 0 9.24 0 14 0 C14 2.31 14 4.62 14 7 C9.38 7 4.76 7 0 7 C0 4.69 0 2.38 0 0 Z " fill="#207449" transform="translate(67,64)"/>
<path d="M0 0 C4.62 0 9.24 0 14 0 C14 2.31 14 4.62 14 7 C9.38 7 4.76 7 0 7 C0 4.69 0 2.38 0 0 Z " fill="#207449" transform="translate(67,43)"/>
<path d="M0 0 C4.62 0 9.24 0 14 0 C14 2.31 14 4.62 14 7 C9.38 7 4.76 7 0 7 C0 4.69 0 2.38 0 0 Z " fill="#207449" transform="translate(67,22)"/>
</svg>
