<?xml version="1.0" encoding="UTF-8"?>
<svg version="1.1" xmlns="http://www.w3.org/2000/svg" width="96" height="96">
<path d="M0 0 C1.67542976 0.28604898 3.34385343 0.61781233 5 1 C5.21914063 1.99 5.43828125 2.98 5.6640625 4 C7.92122547 13.62584942 10.3374112 21.01151908 18.8125 26.875 C25.853162 30.83704554 33.14219864 31.88316274 41 30 C48.76464317 27.32297433 54.57795604 23.62809044 58.86328125 16.50390625 C61.09500592 11.58797665 62.00954764 6.28241257 63 1 C64.65614657 0.61781233 66.32457024 0.28604898 68 0 C69.59399326 1.59399326 69.2470667 3.22998725 69.3125 5.4375 C69.17560652 15.04742246 64.75949534 23.29181013 58 30 C47.88211665 37.48819576 38.25054405 38.94974777 26 38 C17.77277411 36.18020301 10.19158281 31.31239561 5.17578125 24.53515625 C0.34682765 16.75972249 -1.74368383 10.18363057 -1 1 C-0.67 0.67 -0.34 0.34 0 0 Z " fill="#3B3B3B" transform="translate(14,45)"/>
<path d="M0 0 C1.65 0.33 3.3 0.66 5 1 C5.33 11.89 5.66 22.78 6 34 C8.31 31.69 10.62 29.38 13 27 C14.32 27.33 15.64 27.66 17 28 C17.33 28.99 17.66 29.98 18 31 C16.03970417 33.96623712 13.4460292 36.42745205 11 39 C10.38898437 39.69738281 9.77796875 40.39476562 9.1484375 41.11328125 C8.56320313 41.75652344 7.97796875 42.39976563 7.375 43.0625 C6.84648438 43.65160156 6.31796875 44.24070313 5.7734375 44.84765625 C4 46 4 46 1.71875 46.078125 C-2.31812022 44.47729716 -4.86513878 41.75396259 -7.875 38.6875 C-8.48085938 38.10548828 -9.08671875 37.52347656 -9.7109375 36.92382812 C-10.278125 36.35470703 -10.8453125 35.78558594 -11.4296875 35.19921875 C-11.94772949 34.68190186 -12.46577148 34.16458496 -12.99951172 33.6315918 C-14 32 -14 32 -13.84814453 29.86254883 C-13.56825684 29.24790771 -13.28836914 28.6332666 -13 28 C-12.01 27.67 -11.02 27.34 -10 27 C-7.95703125 28.43359375 -7.95703125 28.43359375 -5.8125 30.4375 C-5.09707031 31.09621094 -4.38164063 31.75492188 -3.64453125 32.43359375 C-3.10183594 32.95050781 -2.55914062 33.46742187 -2 34 C-1.97494385 33.00556885 -1.9498877 32.0111377 -1.92407227 30.98657227 C-1.83015118 27.30951253 -1.72989381 23.6326485 -1.62768555 19.95581055 C-1.58427854 18.362107 -1.54260781 16.7683552 -1.50268555 15.17456055 C-1.44512193 12.88836092 -1.38138851 10.60240551 -1.31640625 8.31640625 C-1.29969376 7.59973282 -1.28298126 6.88305939 -1.26576233 6.14466858 C-1.11387171 1.11387171 -1.11387171 1.11387171 0 0 Z " fill="#3B3B3B" transform="translate(46,13)"/>
</svg>
